<?xml version="1.0" encoding="iso-8859-1"?>
<!-- Generator: Adobe Illustrator 19.0.0, SVG Export Plug-In . SVG Version: 6.00 Build 0)  -->
<svg version="1.1" id="Capa_1" xmlns="http://www.w3.org/2000/svg" xmlns:xlink="http://www.w3.org/1999/xlink" x="0px" y="0px"
	 viewBox="0 0 56.48 56.48" style="enable-background:new 0 0 56.48 56.48;" xml:space="preserve">
<g>
	<g>
		<path d="M47.497,30.536c0.005-0.175-0.055-0.261-0.243-0.256c-0.336,0.008-0.673-0.018-1.007,0.007
			c-1.116,0.084-1.319,0.499-1.331,1.417c-0.008,0.541,0.243,0.831,0.672,0.903c0.595,0.097,1.154-0.029,1.696-0.268
			c0.148-0.064,0.22-0.152,0.213-0.32c-0.01-0.238-0.003-0.477-0.003-0.715C47.494,31.049,47.489,30.792,47.497,30.536z"/>
	</g>
</g>
<g>
	<g>
		<path d="M23.896,31.302c0-0.273,0.01-0.549-0.007-0.82c-0.004-0.068-0.098-0.188-0.147-0.188
			c-0.553,0.021-1.108,0.034-1.657,0.104c-0.337,0.043-0.584,0.287-0.651,0.624c-0.063,0.313-0.082,0.646-0.056,0.968
			c0.029,0.354,0.283,0.559,0.631,0.618c0.557,0.095,1.083-0.011,1.601-0.214c0.222-0.088,0.317-0.213,0.291-0.455
			C23.88,31.728,23.897,31.513,23.896,31.302z"/>
	</g>
</g>
<g>
	<g>
		<path d="M55.026,9.939H1.454C0.65,9.939,0,10.59,0,11.393v33.694c0,0.803,0.65,1.455,1.454,1.455h53.572
			c0.804,0,1.454-0.651,1.454-1.454V11.393C56.48,10.591,55.83,9.939,55.026,9.939z M7.671,33.461c0,0.494-0.251,0.745-0.751,0.75
			c-0.477,0.004-0.955,0.004-1.432,0c-0.324,0-0.368-0.046-0.368-0.369c0-1.848,0-3.693,0-5.541c0-1.82,0-3.642,0-5.462
			c0-0.493,0.272-0.773,0.762-0.78c0.469-0.006,0.937-0.004,1.406-0.001c0.315,0.003,0.384,0.076,0.384,0.399
			C7.673,26.125,7.673,29.792,7.671,33.461z M13.797,34.236c-1.069-0.1-2.051-0.432-2.919-1.07c-1.324-0.969-2.12-2.267-2.366-3.894
			c-0.018-0.123-0.043-0.244-0.047-0.367C8.453,28.572,8.457,28.572,8.9,28.58c1.373,0.136,2.633,0.726,3.656,1.795
			c0.951,0.996,1.445,2.201,1.582,3.558C14.17,34.245,14.115,34.265,13.797,34.236z M14.136,22.388
			c-0.292,2.447-1.56,4.153-3.875,5.033c-0.464,0.177-0.968,0.25-1.453,0.369c-0.353-0.045-0.372-0.046-0.343-0.382
			c0.113-1.289,0.592-2.427,1.453-3.394c0.941-1.056,2.123-1.673,3.516-1.895c0.121-0.018,0.247-0.01,0.369-0.03
			C14.124,22.039,14.175,22.075,14.136,22.388z M17.8,24.075c0,3.225,0,6.45,0,9.674c0,0.467-0.043,0.51-0.517,0.51
			c-0.504,0-1.008,0.002-1.511,0c-0.313-0.002-0.368-0.059-0.368-0.375c0-1.92,0-3.836,0-5.752c0-1.882,0-3.764,0-5.646
			c0-0.39,0.037-0.428,0.421-0.429c0.513,0,1.025,0,1.537,0c0.371,0.001,0.437,0.065,0.438,0.428
			C17.801,23.015,17.8,23.544,17.8,24.075z M25.909,34.257c-0.477,0.002-0.954,0.002-1.431,0c-0.404,0-0.455-0.049-0.475-0.449
			c-0.001-0.043-0.01-0.086-0.021-0.17c-0.272,0.152-0.503,0.297-0.746,0.416c-0.848,0.413-1.732,0.452-2.624,0.187
			c-0.803-0.237-1.295-0.791-1.492-1.604c-0.142-0.584-0.154-1.174-0.036-1.758c0.184-0.902,0.793-1.404,1.64-1.66
			c0.821-0.248,1.666-0.276,2.514-0.268c0.606,0.007,0.607,0.001,0.605-0.613c0-0.159,0.011-0.323-0.017-0.476
			c-0.091-0.495-0.422-0.804-0.97-0.804c-0.917,0-1.834,0.039-2.749,0.091c-0.448,0.027-0.508,0.004-0.508-0.449
			c0-0.318,0.006-0.637-0.002-0.954c-0.004-0.178,0.066-0.299,0.235-0.334c1.421-0.303,2.851-0.512,4.292-0.155
			c1.301,0.323,2.069,1.228,2.104,2.579c0.053,2.019,0.043,4.043,0.055,6.064C26.284,34.171,26.186,34.257,25.909,34.257z
			 M32.297,27.047c-0.664-0.027-1.267,0.181-1.857,0.458c-0.177,0.084-0.235,0.195-0.235,0.389c0.007,1.962,0.005,3.925,0.005,5.886
			c0,0.417-0.065,0.479-0.472,0.479c-0.504,0.002-1.008,0.002-1.512,0c-0.372,0-0.458-0.088-0.458-0.479
			c-0.001-1.477,0-2.951,0-4.428c0-1.221,0-2.439,0-3.659c0-0.435,0.072-0.505,0.509-0.506c0.477,0,0.955-0.001,1.433,0.001
			c0.372,0,0.439,0.07,0.447,0.451c0.001,0.076,0.012,0.151,0.02,0.277c0.116-0.082,0.192-0.133,0.267-0.188
			c0.56-0.404,1.183-0.621,1.872-0.65c0.234-0.01,0.34,0.092,0.336,0.33c-0.008,0.434-0.01,0.865,0.001,1.299
			C32.658,26.965,32.539,27.055,32.297,27.047z M40.924,34.258c-0.494,0-0.988,0-1.483,0c-0.388,0-0.429-0.041-0.429-0.422
			c-0.002-1.731,0.004-3.464-0.006-5.195c0-0.289-0.041-0.58-0.093-0.865c-0.075-0.413-0.357-0.648-0.756-0.713
			c-0.727-0.12-1.381,0.11-1.985,0.485c-0.08,0.05-0.113,0.231-0.113,0.351c-0.008,1.458-0.006,2.916-0.006,4.374
			c0,0.548-0.006,1.096,0.002,1.644c0.003,0.254-0.106,0.348-0.351,0.346c-0.548-0.01-1.096-0.002-1.644-0.004
			c-0.317-0.002-0.404-0.091-0.404-0.416c-0.001-2.756-0.001-5.514,0-8.271c0-0.291,0.087-0.381,0.378-0.383
			c0.495-0.005,0.989-0.004,1.483-0.001c0.313,0.002,0.369,0.06,0.375,0.372c0.001,0.119,0.012,0.238,0.022,0.428
			c0.163-0.104,0.259-0.161,0.353-0.224c0.967-0.655,2.037-0.814,3.164-0.615c1.029,0.181,1.591,0.869,1.8,1.848
			c0.1,0.471,0.157,0.96,0.163,1.441c0.018,1.786,0.007,3.569,0.007,5.354C41.401,34.211,41.352,34.258,40.924,34.258z
			 M49.415,34.26c-0.459,0.002-0.919,0.002-1.378,0c-0.395,0-0.419-0.024-0.44-0.41c-0.002-0.045-0.006-0.088-0.014-0.131
			c-0.003-0.015-0.018-0.028-0.046-0.069c-0.057,0.028-0.108,0.043-0.149,0.071c-0.617,0.461-1.325,0.636-2.078,0.697
			c-1.489,0.12-2.627-0.86-2.696-2.351c-0.017-0.368-0.029-0.743,0.028-1.103c0.138-0.871,0.672-1.45,1.5-1.682
			c0.621-0.173,1.275-0.246,1.921-0.322c0.374-0.045,0.759-0.014,1.139-0.007c0.166,0.002,0.248-0.052,0.239-0.228
			c-0.013-0.264,0.01-0.533-0.034-0.792c-0.101-0.58-0.429-0.882-1.015-0.88c-0.908,0.006-1.816,0.046-2.723,0.098
			c-0.455,0.025-0.521-0.011-0.521-0.48c0-0.292,0.001-0.583,0-0.875c-0.001-0.226,0.098-0.352,0.328-0.405
			c1.056-0.238,2.123-0.368,3.203-0.3c0.451,0.028,0.91,0.126,1.34,0.271c1.029,0.341,1.594,1.096,1.758,2.154
			c0.041,0.269,0.055,0.545,0.055,0.816c0.006,1.84,0.002,3.678,0.002,5.516C49.834,34.213,49.789,34.258,49.415,34.26z
			 M50.653,24.633h-0.195v0.569h-0.082v-0.569h-0.195v-0.069h0.474L50.653,24.633z M51.279,25.203l-0.016-0.281
			c-0.004-0.087-0.01-0.197-0.01-0.275h-0.002c-0.021,0.074-0.048,0.154-0.08,0.242L51.058,25.2h-0.062l-0.104-0.305
			c-0.03-0.09-0.054-0.173-0.073-0.248h-0.002c-0.002,0.079-0.007,0.184-0.013,0.282l-0.017,0.274h-0.079l0.045-0.639h0.105
			l0.109,0.309c0.025,0.078,0.046,0.149,0.063,0.216h0.003c0.018-0.066,0.04-0.135,0.069-0.216l0.113-0.309h0.105l0.04,0.639H51.279
			z"/>
	</g>
</g>
<g>
</g>
<g>
</g>
<g>
</g>
<g>
</g>
<g>
</g>
<g>
</g>
<g>
</g>
<g>
</g>
<g>
</g>
<g>
</g>
<g>
</g>
<g>
</g>
<g>
</g>
<g>
</g>
<g>
</g>
</svg>
